<?xml version="1.0" encoding="UTF-8"?>
<svg id="Layer_2" data-name="Layer 2" xmlns="http://www.w3.org/2000/svg" viewBox="0 0 104.08 104.08">
  <defs>
    <style>
      .cls-1 {
        fill: #8f362c;
      }

      .cls-2 {
        fill: #3b4417;
      }

      .cls-3 {
        fill: #6c754a;
      }

      .cls-4 {
        fill: #e0dbc5;
      }

      .cls-5 {
        fill: #7d8452;
      }

      .cls-6 {
        fill: #d9bc81;
      }

      .cls-7 {
        fill: #161628;
      }
    </style>
  </defs>
  <g id="Layer_1-2" data-name="Layer 1">
    <g>
      <circle class="cls-3" cx="52.04" cy="52.04" r="51.04"/>
      <path class="cls-7" d="M52.04,104.08C23.35,104.08,0,80.74,0,52.04S23.35,0,52.04,0s52.04,23.35,52.04,52.04-23.35,52.04-52.04,52.04ZM52.04,2C24.45,2,2,24.45,2,52.04s22.45,50.04,50.04,50.04,50.04-22.45,50.04-50.04S79.63,2,52.04,2Z"/>
      <circle class="cls-5" cx="52.04" cy="52.04" r="43.33"/>
      <path class="cls-4" d="M52.04,92.81c-22.48,0-40.77-18.29-40.77-40.77S29.56,11.27,52.04,11.27s40.77,18.29,40.77,40.77-18.29,40.77-40.77,40.77ZM52.04,11.76c-22.21,0-40.28,18.07-40.28,40.28s18.07,40.28,40.28,40.28,40.28-18.07,40.28-40.28S74.25,11.76,52.04,11.76Z"/>
      <g>
        <path class="cls-4" d="M24.63,67.19c.39.64,1.1,1.03,1.89.55l.77-.47c.29-.18.32-.28.15-.56l-.3-.5.7-.43,2.23,3.67-.69.42-.31-.5c-.17-.27-.27-.3-.57-.12l-.88.53c-1.18.72-2.52-.29-3.33-1.62-.8-1.31-1.06-2.92-.03-3.55.65-.39,1.25-.07,1.55.41.27.44.28,1.02-.19,1.3-.58.36-1.16-.19-1.19-.83-.22.49-.12,1.16.2,1.67Z"/>
        <path class="cls-4" d="M33.23,78.18l-3.16-3.01.52-.55.44.42c.18.17.33.12.37-.14v-.09s-2.06-1.97-2.06-1.97h-.09c-.26.06-.29.23-.11.4l.45.43-.52.55-2.25-2.14.52-.55.08.08c.3.28.5.38.89.32l2.26-.37c.22-.04.3-.21.14-.36l-.26-.25.52-.55,2.81,2.67-.48,3.6c-.05.37.06.59.36.88l.08.08-.52.55ZM31.77,72.4l-1.5.28,1.29,1.22.21-1.5Z"/>
        <path class="cls-4" d="M44.54,82.21c-.13.32-.09.42.2.54l.54.22-.29.7-3.96-1.65.29-.7.54.22c.3.12.4.08.53-.24l.71-1.71-3.26,1.93-1.02-.43-.93-3.67-.71,1.71c-.13.32-.09.42.2.54l.54.22-.29.7-2.96-1.23.29-.7.54.22c.3.12.4.08.53-.23l.66-1.59c.13-.32.09-.42-.2-.54l-.54-.22.29-.7,3.76,1.57.62,2.54,2.26-1.34,3.68,1.53-.29.7-.54-.22c-.3-.12-.4-.08-.53.24l-.66,1.59Z"/>
        <path class="cls-4" d="M56.54,81.31c-.09-.54-.3-.86-.89-.83l-2.48.13.05.87,1.03-.05c.41-.02.52-.14.5-.49v-.06s.93-.05.93-.05l.09,1.81-.93.05v-.06c-.02-.33-.14-.46-.55-.44l-1.03.05.03.51c.02.34.1.42.42.4l.58-.03.04.76-4.29.22-.04-.76.58-.03c.32-.02.39-.1.37-.44l-.09-1.73c-.02-.34-.1-.42-.42-.4l-.58.03-.04-.76,7.68-.4.09,1.63-1.05.05Z"/>
        <path class="cls-4" d="M65.81,77.44c-.3.11-.34.21-.22.53l.36.96c.45,1.2-.08,2.21-2.43,3.1-2.35.89-3.47.5-3.93-.7l-.36-.96c-.12-.32-.22-.37-.52-.25l-.55.21-.27-.71,4.02-1.52.27.71-.55.21c-.3.11-.34.21-.22.53l.34.9c.33.87.98,1.06,1.98.69.99-.38,1.36-.95,1.03-1.82l-.34-.9c-.12-.32-.22-.37-.52-.25l-.55.21-.27-.71,3-1.13.27.71-.55.21Z"/>
        <path class="cls-4" d="M73.43,71.52c-.25.2-.26.31-.04.58l1.85,2.24-2.05,1.69-4.23-.27,1.1,1.33c.22.27.33.28.57.07l.45-.37.48.59-2.48,2.05-.48-.59.45-.37c.25-.21.26-.31.04-.58l-1.1-1.33c-.22-.27-.33-.28-.57-.07l-.45.37-.48-.58,3.13-2.59,3.65.24-.85-1.03c-.22-.27-.33-.28-.57-.07l-.45.37-.48-.59,2.46-2.03.48.59-.43.36Z"/>
        <path class="cls-4" d="M76.06,66.31c1.18-1.9,2.46-3.06,3.77-2.24,1.36.84.89,2.5-.3,4.4l-2.41,3.88-.64-.4.31-.5c.17-.27.15-.38-.15-.56l-1.47-.91c-.29-.18-.4-.16-.57.12l-.31.5-.64-.4,2.41-3.88ZM76.55,66.96l-.51.81,2.18,1.36.51-.81c.55-.89.64-1.58-.23-2.12-.82-.51-1.4-.13-1.95.76Z"/>
      </g>
      <g>
        <path class="cls-4" d="M30.75,32.41c-.19.26-.14.32.14.52l.83.6-.58.81-.54-.16c.06.59-.02,1.22-.89,2.43-1.18,1.65-2.72,2.82-4.05,1.86-1.33-.95-.72-2.79.5-4.48.71-1,1.27-1.43,1.79-1.6l-.17-.39.54-.75,1.14.82-.72,1c-.72-.04-1.3.43-1.74,1.04-.66.93-.7,1.75.11,2.33.81.58,1.56.31,2.2-.59.51-.72.75-1.56.43-1.8-.09-.06-.16-.04-.25.09l-.49.68-.62-.44,1.91-2.67.62.44-.19.27Z"/>
        <path class="cls-4" d="M34.48,28.08c.33-.24.35-.41.14-.69l-.03-.05.75-.56,1.08,1.45-.75.56-.03-.05c-.2-.27-.37-.3-.7-.06l-.83.62.56.75,2.03-1.52c.48-.36.43-.73.15-1.2l.84-.63.98,1.31-6.2,4.64-.45-.61.47-.35c.26-.19.27-.3.07-.57l-1.03-1.38c-.21-.28-.31-.29-.57-.1l-.47.35-.45-.61,6.15-4.6.98,1.31-.84.63c-.37-.4-.73-.55-1.2-.2l-1.98,1.49.52.7.83-.62Z"/>
        <path class="cls-4" d="M46.38,21.75c-.31.1-.35.19-.25.52l.9,2.77-2.53.82-3.83-1.81.53,1.64c.11.33.2.38.51.28l.56-.18.23.72-3.05.99-.23-.72.56-.18c.31-.1.35-.19.25-.52l-.53-1.64c-.11-.33-.2-.38-.51-.28l-.56.18-.23-.72,3.87-1.25,3.31,1.57-.41-1.27c-.11-.33-.2-.38-.51-.28l-.56.18-.23-.72,3.03-.98.23.72-.53.17Z"/>
        <path class="cls-4" d="M53,22.37c.41,0,.53-.11.53-.46v-.06s.94.01.94.01l-.03,1.81h-.94s0-.07,0-.07c0-.33-.11-.47-.52-.48l-1.03-.02v.94s2.53.04,2.53.04c.6,0,.79-.32.85-.86l1.05.02-.03,1.64-7.75-.12v-.76s.6,0,.6,0c.32,0,.4-.07.4-.41l.03-1.73c0-.34-.07-.42-.39-.43h-.58s.01-.77.01-.77l7.7.12-.03,1.64-1.05-.02c-.05-.54-.24-.88-.83-.89l-2.48-.04v.88s1.02.02,1.02.02Z"/>
        <path class="cls-4" d="M63.48,24.11c-.15-.64-1.07-1.03-1.8-1.27-.56-.18-1.27-.37-1.36-.08-.05.14.09.29.48.45l1.64.64c1.8.7,2.33,1.34,2.09,2.08-.37,1.13-2.08,1.01-3.68.49-1.15-.38-2.04-.9-2.35-1.29l-.29.25-.88-.29.41-1.27,1.21.4c.02.66,1.15,1.14,1.93,1.4.51.17,1.25.36,1.35.05.05-.16-.11-.31-.48-.45l-1.49-.57c-1.8-.69-2.39-1.37-2.15-2.12.38-1.17,2.27-.89,3.58-.46,1.1.36,1.86.84,2.17,1.21l.29-.25.88.29-.39,1.19-1.17-.38Z"/>
        <path class="cls-4" d="M69.66,28.04c.33.23.5.21.7-.08l.03-.05.76.54-1.04,1.48-.76-.54.03-.05c.19-.27.17-.45-.16-.68l-.85-.59-.54.76,2.08,1.46c.49.34.83.18,1.19-.23l.86.6-.94,1.34-6.34-4.45.44-.62.48.34c.26.18.37.17.57-.12l.99-1.41c.2-.28.18-.39-.08-.57l-.48-.34.44-.62,6.29,4.42-.94,1.34-.86-.6c.26-.48.29-.86-.18-1.2l-2.03-1.43-.5.72.85.59Z"/>
        <path class="cls-4" d="M73.32,31.32c1.31-.98,2.84.12,4.28,2.04,1.43,1.92,2.05,3.7.73,4.68-1.31.98-2.84-.12-4.28-2.04-1.43-1.92-2.05-3.7-.73-4.68ZM74.66,35.55c.66.88,1.37,1.07,2.16.48.8-.59.82-1.33.16-2.21-.66-.88-1.37-1.07-2.16-.48-.8.59-.82,1.33-.16,2.21Z"/>
      </g>
      <g>
        <g>
          <path class="cls-7" d="M38.17,42.33c-1.21-.13-1.22-.03-2.44-.03s-1.22.02-2.44.02-1.22-.04-2.44-.04-1.22.09-2.44.09-1.22-.02-2.44-.02-1.22-.05-2.44-.05-1.22.07-2.44.07-1.22-.07-2.44-.07-1.22-.04-2.44-.04-1.22.01-2.44.01-1.22.02-2.44.02-1.22.04-2.44.04-1.22.02-2.44.02-1.22,0-2.45,0-1.28-.41-2.45-.06c-.36.11-.38.72-.02.83,1.16.36,1.23-.07,2.44-.07s1.21-.05,2.42-.05,1.21,0,2.42,0,1.21.05,2.42.05,1.21-.03,2.42-.03,1.21.05,2.42.05,1.21,0,2.42,0,1.21-.06,2.42-.06,1.21.07,2.42.07,1.21-.04,2.42-.04,1.21.04,2.42.04,1.21-.01,2.42-.01,1.21,0,2.43,0,1.21,0,2.43,0,1.23.2,2.44.08c.08-.25.16-.55.26-.79Z"/>
          <path class="cls-7" d="M64.44,42.25c.15.24.3.48.43.73q1.18.12,2.37.12c1.19,0,1.19-.11,2.38-.11s1.19.05,2.37.05,1.19-.05,2.38-.05,1.19.12,2.37.12,1.19-.14,2.38-.14,1.19.04,2.38.04,1.19.06,2.38.06,1.19-.04,2.38-.04,1.19-.03,2.37-.03,1.19.01,2.38.01,1.19.03,2.38.03,1.19-.02,2.38-.02,1.19.05,2.38.05,1.19-.1,2.38-.1,1.23.39,2.37.03c.36-.11.37-.61.02-.72-1.15-.36-1.2.07-2.4.07s-1.2-.07-2.4-.07-1.2-.05-2.4-.05-1.2.01-2.4.01-1.2.03-2.4.03-1.2.04-2.4.04-1.2.02-2.4.02-1.2,0-2.4,0-1.2-.06-2.4-.06-1.2-.06-2.4-.06-1.2.08-2.4.08-1.2.05-2.4.05-1.2,0-2.41,0-1.2-.05-2.41-.05-1.21.09-2.41.03-1.22-.23-2.41-.1Z"/>
        </g>
        <g>
          <path class="cls-7" d="M37.37,46.89c-1.19-.12-1.19-.06-2.38-.06s-1.19,0-2.38,0-1.19-.03-2.39-.03-1.19.01-2.39.01-1.19-.04-2.39-.04-1.19.1-2.39.1-1.19.02-2.39.02-1.19-.1-2.39-.1-1.19.11-2.38.11-1.19-.12-2.39-.12-1.19.09-2.39.09-1.19-.08-2.39-.08-1.19.12-2.39.12-1.2-.11-2.39-.11-1.23-.26-2.38.1c-.36.11-.37.58-.01.69,1.14.36,1.19-.05,2.39-.05s1.19.11,2.39.11,1.19-.13,2.39-.13,1.19.04,2.39.04,1.2.06,2.39.06,1.19-.03,2.39-.03,1.19-.03,2.39-.03,1.2,0,2.39,0,1.19.03,2.39.03,1.19-.02,2.39-.02,1.2.04,2.39.04,1.2-.09,2.39-.09,1.2.02,2.39.02,1.2.05,2.4.05,1.2.06,2.39-.07c-.02-.25-.03-.38-.04-.63Z"/>
          <path class="cls-7" d="M65.96,46.86c.03.25.04.43.05.68,1.22.12,1.23.02,2.45.02s1.23-.05,2.46-.05,1.23.02,2.46.02,1.23.11,2.46.11,1.23-.14,2.46-.14,1.23.13,2.46.13,1.23-.04,2.46-.04,1.23-.04,2.46-.04,1.23,0,2.46,0,1.23.02,2.46.02,1.23-.05,2.46-.05,1.23.07,2.46.07,1.23,0,2.46,0,1.23.04,2.47.04,1.29.34,2.47-.01c.36-.11.37-.73.01-.84-1.18-.36-1.25.1-2.48.1s-1.23.02-2.46.02-1.23-.1-2.46-.1-1.23.11-2.46.11-1.23-.12-2.46-.12-1.23.09-2.46.09-1.23-.08-2.46-.08-1.23.12-2.46.12-1.23-.12-2.46-.12-1.23.11-2.46.11-1.23-.05-2.46-.05-1.23.05-2.46.05-1.23-.12-2.47-.12-1.24.16-2.47.13-1.24-.16-2.46-.04Z"/>
        </g>
        <g>
          <path class="cls-7" d="M65.51,51.32c-.08.25-.16.53-.26.78,1.17.13,1.17,0,2.35,0s1.18-.01,2.35-.01,1.17.03,2.35.03,1.18,0,2.35,0,1.18-.09,2.35-.09,1.18.14,2.35.14,1.18-.08,2.35-.08,1.18.07,2.35.07,1.18-.06,2.35-.06,1.17,0,2.35,0,1.18-.04,2.35-.04,1.18,0,2.35,0,1.18.02,2.35.02,1.18-.05,2.36-.05,1.18.02,2.36.02,1.26.47,2.38.11c.36-.11.31-.63-.04-.75-1.11-.36-1.14-.13-2.31-.13s-1.17.04-2.34.04-1.17.04-2.33.04-1.17,0-2.34,0-1.17-.02-2.33-.02-1.17.05-2.34.05-1.17-.07-2.33-.07-1.17,0-2.34,0-1.17-.04-2.34-.04-1.17.01-2.33.01-1.17-.05-2.34-.05-1.17.1-2.34.1-1.17.02-2.34.02-1.17-.11-2.34-.11-1.18.16-2.35.11-1.18-.22-2.34-.1Z"/>
          <path class="cls-7" d="M38.45,51.34c-1.22-.12-1.23-.01-2.46-.01s-1.23.06-2.46.06-1.23.01-2.46.01-1.23-.02-2.46-.02-1.23-.02-2.46-.02-1.23.06-2.46.06-1.23-.02-2.46-.02-1.23-.03-2.46-.03-1.23.03-2.45.03-1.23-.11-2.46-.11-1.23.12-2.46.12-1.23-.1-2.46-.1-1.23.04-2.46.04-1.23,0-2.47,0-1.28-.35-2.46.01c-.36.11-.36.64,0,.75,1.11.36,1.17,0,2.33,0s1.17-.09,2.33-.09,1.16.14,2.33.14,1.17-.08,2.33-.08,1.16.07,2.33.07,1.17-.06,2.33-.06,1.16,0,2.33,0,1.17-.04,2.33-.04,1.17,0,2.33,0,1.16.02,2.33.02,1.17-.05,2.33-.05,1.17.02,2.33.02,1.17.12,2.33.12,1.17-.14,2.33-.14,1.17.13,2.34.13,1.18.09,2.34-.04c-.15-.24-.28-.52-.4-.78Z"/>
        </g>
        <g>
          <path class="cls-7" d="M63.85,55.91c-.04.25-.08.4-.13.65,1.22.13,1.22.07,2.44.07s1.22,0,2.45,0,1.22.06,2.45.06,1.22-.02,2.45-.02,1.22.04,2.45.04,1.22-.09,2.45-.09,1.22.05,2.45.05,1.22.03,2.45.03,1.22-.14,2.45-.14,1.22.05,2.44.05,1.22.04,2.45.04,1.23.01,2.45.01,1.23-.06,2.45-.06,1.23-.01,2.45-.01,1.23.02,2.46.02,1.28.38,2.45.02c.36-.11.34-.56-.02-.67-1.16-.36-1.2-.02-2.41-.02s-1.22-.03-2.44-.03-1.22.03-2.44.03-1.22-.11-2.44-.11-1.22.12-2.44.12-1.22-.1-2.44-.1-1.22.05-2.44.05-1.22,0-2.44,0-1.22.01-2.44.01-1.22-.03-2.44-.03-1.22,0-2.44,0-1.22.09-2.44.09-1.22-.14-2.44-.14-1.22.08-2.44.08-1.22-.04-2.45-.08-1.23-.03-2.45.09Z"/>
          <path class="cls-7" d="M39.58,55.93c-1.18-.12-1.18-.05-2.37-.05s-1.19,0-2.38,0-1.19-.01-2.37-.01-1.19.05-2.38.05-1.19-.01-2.37-.01-1.19.03-2.38.03-1.19-.03-2.38-.03-1.19.04-2.38.04-1.19-.06-2.38-.06-1.19-.03-2.37-.03-1.19-.04-2.38-.04-1.19.09-2.38.09-1.19.04-2.38.04-1.19-.06-2.38-.06-1.19,0-2.38,0-1.26-.42-2.4-.06c-.36.11-.35.7,0,.81,1.14.36,1.2.04,2.39.04s1.2-.08,2.39-.08,1.19.05,2.39.05,1.2.03,2.39.03,1.19-.13,2.39-.13,1.2.05,2.39.05,1.2.03,2.39.03,1.2.01,2.39.01,1.2-.06,2.39-.06,1.19-.01,2.39-.01,1.2.02,2.39.02,1.2.02,2.39.02,1.2-.06,2.39-.06,1.2.02,2.39.02,1.2.03,2.4.03,1.2.09,2.39-.03c-.09-.25-.17-.39-.24-.64Z"/>
        </g>
        <g>
          <path class="cls-7" d="M42.3,60.4c-1.19-.12-1.2.01-2.39.01s-1.2-.01-2.39-.01-1.2.08-2.4.08-1.2-.03-2.39-.03-1.2-.09-2.4-.09-1.2.09-2.39.09-1.2-.03-2.4-.03-1.2.03-2.4.03-1.2-.1-2.4-.1-1.2.11-2.4.11-1.2,0-2.39,0-1.2-.08-2.4-.08-1.2.04-2.4.04-1.2.05-2.4.05-1.2-.06-2.4-.06-1.2,0-2.4,0-1.26-.37-2.41-.01c-.36.11-.34.61.02.72,1.17.36,1.21.01,2.43.01s1.22-.03,2.45-.03,1.23.04,2.45.04,1.22-.05,2.45-.05,1.23.06,2.45.06,1.23.04,2.45.04,1.23.05,2.45.05,1.23-.1,2.45-.1,1.23-.05,2.45-.05,1.23.07,2.45.07,1.22,0,2.45,0,1.23.06,2.45.06,1.23-.02,2.45-.02,1.23.05,2.46.05,1.23-.09,2.46-.09,1.23.05,2.46.05,1.24.16,2.47.03c-.34-.23-.66-.55-.96-.82Z"/>
          <path class="cls-7" d="M62.14,60.47c-.18.26-.38.42-.58.66,1.21.13,1.21-.05,2.42-.05s1.21.08,2.43.08,1.22-.03,2.43-.03,1.21.01,2.43.01,1.22.05,2.43.05,1.22-.11,2.43-.11,1.22.1,2.43.1,1.22-.04,2.43-.04,1.22-.07,2.43-.07,1.22.08,2.43.08,1.21.05,2.43.05,1.22,0,2.43,0,1.22-.07,2.43-.07,1.22-.01,2.43-.01,1.22.01,2.44.01,1.22-.08,2.44-.08,1.26.39,2.43.04c.36-.11.38-.65.03-.76-1.14-.36-1.21.09-2.41.09s-1.2-.03-2.39-.03-1.2.03-2.4.03-1.2-.1-2.39-.1-1.2.11-2.4.11-1.2,0-2.4,0-1.2-.08-2.4-.08-1.2.04-2.4.04-1.2.05-2.4.05-1.2-.06-2.4-.06-1.2,0-2.39,0-1.2-.01-2.4-.01-1.2.05-2.4.05-1.2-.02-2.4-.02-1.2.03-2.4.03-1.2-.02-2.41-.04-1.2-.08-2.4.04Z"/>
        </g>
      </g>
      <g>
        <path class="cls-7" d="M24.73,50.7c-.3-.46-.87-.72-1.47-.66-.56.05-1.02.35-1.22.81-.18.41-.16.86-.15,1.22.06,1.73.23,3.48.07,5.2,0,.04-.01.09-.04.11-.03.02-.06.02-.09.01-1.92-.11-3.83-.95-5.67-1.52l-.18-4.73c.76,0,1.92-.27,2.32-.92.17-.27.28-.71-.11-1.3-.3-.46-.87-.71-1.47-.67-.56.05-1.02.35-1.22.81-.18.41-.16.86-.15,1.22.07,1.92.14,3.85.23,5.77,0,.08,0,.17.06.24.06.08.16.1.26.12.4.08.83.11,1.2.29.3.15.58.27.91.37,1.06.33,2.18.49,3.21.92.47.2.95.45,1.46.44.01,0,.03,0,.04,0,.04,0,.09-.02.11-.05.03-.04.03-.09.03-.14-.03-.56-.18-1.07-.2-1.64-.02-.56-.04-1.12-.06-1.68-.02-.67-.05-1.34-.07-2.01.76,0,1.92-.27,2.32-.92.17-.27.28-.71-.11-1.3Z"/>
        <path class="cls-7" d="M31.88,50.7c-.3-.46-.87-.71-1.47-.67-.56.05-1.02.35-1.23.81-.18.41-.16.86-.15,1.22.04,1.08.08,2.16.12,3.25.02.52.04,1.05.06,1.57.02.56,0,1.11-.02,1.67,0,.06,0,.14.06.17.08.04.16-.02.22-.08.31-.3.72-.42,1.04-.69.28-.23.54-.5.74-.81.22-.37.38-.76.41-1.2.01-.2,0-.41-.03-.6-.03-.18-.11-.27-.23-.42-.06-.07-.12-.15-.21-.19-.08-.04-.2-.05-.27.01.04.34.15.64.15.99,0,.31-.06.6-.2.87-.13.25-.31.48-.51.67-.06.06-.53.38-.53.43,0,0-.17-4.8-.17-4.8.76,0,1.92-.27,2.32-.92.17-.27.28-.71-.11-1.3Z"/>
        <path class="cls-7" d="M75.24,48.6c-.31-.47-.9-.74-1.51-.69-.58.05-1.05.36-1.26.84-.19.42-.17.89-.16,1.26.04,1.04.08,1.9.11,2.76.03.62.05,1.24.08,1.86,0,.16.03.34.02.5,0,.07-.07.23-.04.3.02.04.04.06.06.08.16.15.43-.1.49-.27.15-.39.08-.79.06-1.21-.02-.43-.04-.87-.06-1.3-.03-.6-.05-1.2-.08-1.85.79,0,1.98-.28,2.39-.95.17-.27.29-.73-.11-1.34Z"/>
        <g>
          <path class="cls-7" d="M82.16,46.85c-.24-.15-.49-.24-.71-.41-.07-.05-.84-.48-.84-.47-.06.33.03.6.04.92.02.32.02.65.03.97.02.79.04,1.58.06,2.37.02,1.02.05,2.04.07,2.87-.68,0-1.72.24-2.08.82-.15.24-.25.63.1,1.16.25.38.69.6,1.18.6.04,0,.09,0,.13,0,.5-.04.91-.31,1.1-.73.16-.37.15-.77.13-1.09-.03-.9-.06-2.27-.1-3.64-.03-1.19-.06-2.38-.08-3.26.56.22,1.38.67,1.53,1.28.17.7-.32,1.2-.35,1.86.17.01.3-.14.4-.28.34-.52.63-1.07.47-1.71-.14-.56-.6-.97-1.07-1.26Z"/>
          <path class="cls-7" d="M86.76,53.86c0-.13,0-.25-.01-.38-.03-.92-.07-1.85-.1-2.77-.02-.47-.03-.95-.05-1.42,0-.17-.01-.33-.02-.5,0-.12,0-.26-.08-.36-.1-.12-.27-.32-.45-.25-.05.19,0,.4,0,.59,0,.23,0,.46.01.7.01.46.04.91.05,1.37.03.76.05,1.51.08,2.27-.68,0-1.72.24-2.08.82-.15.24-.25.63.1,1.16.25.38.69.6,1.18.6.04,0,.09,0,.13,0,.5-.04.91-.31,1.1-.73.16-.37.15-.77.13-1.09Z"/>
        </g>
        <path class="cls-7" d="M23.4,49.35c-.08-.3,1.32-.74,1.58-.82.52-.16,1.05-.21,1.58-.29.2-.03.38-.02.58.02.17.03.35.02.52.04.42.05.83.14,1.24.27.26.08.49.22.75.3.22.07.41.08.55.3-.41-.14-.92-.18-1.35-.2-.66-.02-1.13-.19-1.79-.22s-1.31.05-1.9.14c-.1.02-1.79.31-1.76.45Z"/>
        <path class="cls-7" d="M85.92,56.71c.08.3-1.32.74-1.58.82-.52.16-1.05.21-1.58.29-.2.03-.38.02-.58-.02-.17-.03-.35-.02-.52-.04-.42-.05-.83-.14-1.24-.27-.26-.08-.49-.22-.75-.3-.22-.07-.41-.08-.55-.3.41.14.92.18,1.35.2.66.02,1.13.19,1.79.22s1.31-.05,1.9-.14c.1-.02,1.79-.31,1.76-.45Z"/>
      </g>
      <g>
        <path class="cls-1" d="M36.04,48.58c-.09-1.8.1-5.65,3.15-7.84,2.33-1.68,4.73-2.74,7.44-1.8.72.25,1.37.69,2.09.95,2.63.96,5.47-.57,8.27-.71,3.96-.21,7.7,2.57,9.31,6.19s1.34,7.87-.02,11.59-3.72,6.99-6.24,10.05c-1.54,1.87-3.16,3.7-5.15,5.08-.5.35-1.05.68-1.65.76-.59.08-1.17-.09-1.73-.3-2.21-.85-14.77-10.21-15.48-23.97Z"/>
        <path class="cls-6" d="M52.4,47.07s.02.05.05.06c.02.01.04.01.06.01.09,0,.17-.05.22-.13s.08-.16.09-.25c.03-.21-.23-1.22-.45-1.05-.13.1-.14.5-.14.65,0,.24.06.49.17.71Z"/>
        <path class="cls-6" d="M50.02,48.57s0,.05.02.07c.01.02.03.03.05.03.08.03.18,0,.25-.05s.12-.13.16-.2c.09-.19.19-1.22-.08-1.14-.16.05-.29.43-.34.56-.08.23-.11.48-.08.72Z"/>
        <path class="cls-6" d="M41.36,48.85s0,.05.02.07c.01.02.03.03.05.03.08.03.18,0,.25-.05s.12-.13.16-.2c.09-.19.19-1.22-.08-1.14-.16.05-.29.43-.34.56-.08.23-.11.48-.08.72Z"/>
        <path class="cls-6" d="M46.43,50.18s0,.06.03.08c.01.02.04.03.06.04.09.03.2,0,.28-.05s.14-.14.18-.22c.1-.21.2-1.34-.08-1.26-.17.05-.32.47-.37.62-.09.25-.12.53-.08.79Z"/>
        <path class="cls-6" d="M43.63,53.69s.02.05.04.06c.02.01.04.02.06.02.09,0,.17-.05.23-.12s.08-.16.09-.24c.03-.21-.19-1.22-.42-1.07-.13.09-.15.5-.15.64,0,.24.04.49.15.71Z"/>
        <path class="cls-6" d="M59.93,56.38s.02.05.05.06c.02.01.04.01.06.01.09,0,.17-.05.22-.13s.08-.16.09-.25c.03-.21-.23-1.22-.45-1.05-.13.1-.14.5-.14.65,0,.24.06.49.17.71Z"/>
        <path class="cls-6" d="M56.16,58.9s.02.05.04.07c.02.01.04.02.06.02.09.01.18-.03.24-.09s.1-.15.12-.23c.05-.2-.06-1.23-.3-1.1-.14.08-.2.48-.22.62-.03.24,0,.49.07.72Z"/>
        <path class="cls-6" d="M58.72,61.11s.03.04.06.05c.02,0,.04,0,.06,0,.09-.02.16-.08.2-.16s.05-.17.05-.26c0-.21-.42-1.16-.61-.97-.11.12-.06.52-.03.66.04.24.13.47.28.67Z"/>
        <path class="cls-6" d="M59.53,64.43s.01.05.03.07c.02.01.04.02.06.03.09.02.18-.02.24-.07s.11-.14.14-.22c.07-.2.04-1.24-.21-1.13-.15.06-.24.46-.27.6-.05.24-.05.49,0,.73Z"/>
        <path class="cls-6" d="M56.63,67.68s0,.05.02.07c.01.02.03.03.05.04.08.03.18.01.25-.03s.13-.12.17-.19c.1-.18.25-1.21-.01-1.14-.16.04-.32.41-.37.55-.09.23-.13.47-.11.72Z"/>
        <path class="cls-6" d="M52.51,51.4s.02.05.05.06c.02.01.04.01.06.01.09,0,.17-.05.22-.13s.08-.16.09-.25c.03-.21-.23-1.22-.45-1.05-.13.1-.14.5-.14.65,0,.24.06.49.17.71Z"/>
        <path class="cls-6" d="M51.92,56.14s.02.05.05.06c.02.01.04.01.06.01.09,0,.17-.05.22-.13s.08-.16.09-.25c.03-.21-.23-1.22-.45-1.05-.13.1-.14.5-.14.65,0,.24.06.49.17.71Z"/>
        <path class="cls-6" d="M51.37,59.94s.02.05.04.06c.02.01.04.02.06.02.09,0,.17-.05.23-.12s.08-.16.1-.24c.03-.21-.17-1.22-.4-1.07-.14.09-.16.5-.16.64,0,.24.04.49.14.71Z"/>
        <path class="cls-6" d="M47.74,60.89s.03.05.06.06c.02,0,.05,0,.07,0,.1-.02.18-.09.22-.17s.06-.19.05-.28c0-.23-.44-1.29-.66-1.07-.13.13-.07.57-.04.72.04.27.14.52.3.74Z"/>
        <path class="cls-6" d="M45.19,65.21s.04.04.06.04c.02,0,.04,0,.06,0,.08-.03.15-.1.18-.18s.03-.17.01-.26c-.03-.21-.56-1.1-.72-.89-.1.13,0,.52.05.66.07.23.19.45.36.63Z"/>
        <path class="cls-6" d="M45.39,57.34s.02.05.05.06c.02.01.04.01.06.01.09,0,.17-.05.22-.13s.08-.16.09-.25c.03-.21-.23-1.22-.45-1.05-.13.1-.14.5-.14.65,0,.24.06.49.17.71Z"/>
        <path class="cls-6" d="M42.74,61.54s.03.04.05.05c.02,0,.04,0,.06,0,.09-.01.16-.08.2-.16s.05-.17.05-.26c0-.21-.4-1.17-.59-.98-.12.11-.06.52-.04.66.04.24.13.47.27.68Z"/>
        <path class="cls-6" d="M48.22,53.67s.02.05.04.07c.02.01.04.02.06.02.09.01.18-.03.24-.09s.1-.15.12-.23c.05-.2-.05-1.23-.29-1.11-.14.08-.21.48-.23.62-.03.24-.01.49.06.72Z"/>
        <path class="cls-6" d="M41.73,57.09s.02.05.04.07c.02.01.04.02.06.02.09.01.18-.03.24-.09s.1-.15.12-.23c.05-.2-.05-1.23-.29-1.11-.14.08-.21.48-.23.62-.03.24-.01.49.06.72Z"/>
        <path class="cls-6" d="M48,46.23s0,.05,0,.07c0,.02.02.03.04.05.07.05.17.06.25.03s.16-.08.22-.14c.15-.15.55-1.09.28-1.09-.16,0-.41.31-.5.42-.15.19-.25.42-.29.65Z"/>
        <path class="cls-6" d="M46.15,44.01s-.03.04-.03.07c0,.02,0,.04.02.06.04.08.13.12.22.13s.18,0,.26-.04c.19-.08.94-.77.7-.89-.15-.07-.5.12-.63.19-.21.12-.4.28-.53.48Z"/>
        <path class="cls-6" d="M42.52,43.8s-.03.04-.03.07c0,.02,0,.04.02.06.04.08.13.12.22.13s.18,0,.26-.04c.19-.08.94-.77.7-.89-.15-.07-.5.12-.63.19-.21.12-.4.28-.53.48Z"/>
        <path class="cls-6" d="M44.16,46.59s-.01.05,0,.07c0,.02.02.04.04.05.07.06.16.07.25.06s.16-.06.23-.12c.16-.13.65-1.03.38-1.06-.16-.02-.44.27-.54.38-.16.18-.29.39-.35.62Z"/>
        <path class="cls-6" d="M38.58,44.69s-.02.05-.01.07c0,.02.02.04.03.05.06.06.16.09.24.08s.17-.05.24-.1c.17-.12.74-.97.47-1.03-.16-.03-.46.23-.57.33-.18.16-.32.37-.4.59Z"/>
        <path class="cls-6" d="M41.04,41.56s-.03.04-.03.07c0,.02,0,.04.01.06.04.08.12.13.21.14s.18,0,.26-.03c.2-.07.98-.72.74-.85-.14-.08-.51.09-.64.16-.22.11-.41.26-.56.45Z"/>
        <path class="cls-6" d="M54.9,46.16s.03.04.06.05c.02,0,.04,0,.06,0,.09-.02.16-.08.2-.16s.05-.17.04-.26c-.01-.21-.44-1.16-.63-.96-.11.12-.05.52-.02.66.04.24.14.47.29.67Z"/>
        <path class="cls-6" d="M59.58,52.52s.04.05.06.06c.02,0,.05,0,.07,0,.1-.02.17-.09.22-.18s.05-.19.05-.28c-.01-.23-.48-1.27-.69-1.05-.12.13-.05.57-.02.73.05.26.16.52.32.73Z"/>
        <path class="cls-6" d="M48.42,65.22s.03.04.06.05c.02,0,.04,0,.06,0,.09-.02.16-.08.2-.16s.05-.17.04-.26c-.01-.21-.44-1.16-.63-.96-.11.12-.05.52-.02.66.04.24.14.47.29.67Z"/>
        <path class="cls-6" d="M55.22,63.35s.01.06.04.08c.02.02.04.02.06.03.09.02.2-.02.27-.08s.12-.15.15-.24c.08-.22.05-1.36-.22-1.24-.16.07-.27.51-.3.66-.06.26-.06.54,0,.8Z"/>
        <path class="cls-6" d="M52.98,67.09s.01.06.04.08c.02.02.04.02.06.03.09.02.2-.02.27-.08s.12-.15.15-.24c.08-.22.05-1.36-.22-1.24-.16.07-.27.51-.3.66-.06.26-.06.54,0,.8Z"/>
        <path class="cls-6" d="M51.36,63.73s.02.05.04.06c.02.01.04.02.06.02.09,0,.17-.04.23-.11s.09-.15.11-.24c.04-.21-.13-1.23-.36-1.09-.14.08-.18.49-.19.63-.02.24.02.49.11.72Z"/>
        <path class="cls-6" d="M52.59,70.78s.02.05.03.07c.02.01.04.02.06.02.09.01.18-.02.24-.08s.1-.14.13-.23c.06-.2,0-1.24-.25-1.12-.15.07-.22.47-.25.61-.04.24-.03.49.04.72Z"/>
        <path class="cls-6" d="M49.98,68.66s.04.04.06.05c.02,0,.04,0,.06,0,.08-.02.15-.1.18-.18s.03-.17.02-.26c-.03-.21-.53-1.12-.7-.9-.1.13,0,.52.03.66.06.24.18.46.34.64Z"/>
        <path class="cls-6" d="M55.69,50.02s.03.04.06.05c.02,0,.04,0,.06,0,.09-.02.16-.08.2-.16s.05-.17.04-.26c-.01-.21-.44-1.16-.63-.96-.11.12-.05.52-.02.66.04.24.14.47.29.67Z"/>
        <path class="cls-6" d="M54.99,54.41s.03.04.06.05c.02,0,.04,0,.06,0,.09-.02.16-.08.2-.16s.05-.17.04-.26c-.01-.21-.44-1.16-.63-.96-.11.12-.05.52-.02.66.04.24.14.47.29.67Z"/>
        <path class="cls-6" d="M39.12,53.71s0,.05,0,.08c0,.02.02.03.04.05.07.05.17.05.25.02s.15-.09.21-.15c.14-.16.5-1.13.23-1.12-.16,0-.4.34-.48.45-.14.2-.23.43-.26.68Z"/>
        <path class="cls-6" d="M37.78,49.41s-.01.05,0,.08c0,.02.02.04.04.05.07.06.17.07.25.05s.16-.07.23-.13c.15-.14.61-1.08.33-1.1-.16-.01-.43.3-.52.41-.16.19-.27.41-.33.65Z"/>
        <path class="cls-6" d="M59.78,48.23s.04.03.07.03c.02,0,.04,0,.06-.02.08-.04.13-.12.14-.21s0-.18-.03-.26c-.07-.2-.75-.98-.87-.74-.07.14.1.51.17.64.11.22.27.41.47.56Z"/>
        <path class="cls-6" d="M63.9,50.91s.04.03.07.03c.02,0,.04,0,.06-.02.08-.04.13-.12.14-.21s0-.18-.03-.26c-.07-.2-.75-.98-.87-.74-.07.14.1.51.17.64.11.22.27.41.47.56Z"/>
        <path class="cls-6" d="M63.95,56.03s.04.04.06.05c.02,0,.04,0,.06,0,.09-.02.15-.09.19-.17s.04-.17.03-.26c-.03-.21-.51-1.13-.69-.92-.1.12-.01.52.02.66.06.24.17.46.33.65Z"/>
        <path class="cls-6" d="M61.79,60.34s0,.05.03.07c.01.02.03.03.05.03.08.03.18,0,.25-.05s.12-.13.16-.21c.09-.19.17-1.22-.09-1.14-.15.05-.29.43-.33.57-.08.23-.1.48-.06.72Z"/>
        <path class="cls-6" d="M62.43,43.29s.06,0,.08-.03c.02-.01.03-.04.04-.06.03-.09,0-.2-.05-.28s-.14-.13-.23-.18c-.21-.1-1.35-.18-1.25.11.05.17.48.32.63.36.26.08.53.11.8.07Z"/>
        <path class="cls-6" d="M58.54,44.9s.05.03.07.02c.02,0,.04-.01.06-.02.07-.05.11-.14.12-.23s-.02-.17-.06-.25c-.09-.19-.86-.89-.96-.63-.06.15.16.49.24.61.14.2.32.37.53.5Z"/>
        <path class="cls-6" d="M64.17,46.68s.05,0,.08,0c.02,0,.04-.02.05-.04.05-.07.06-.17.04-.25s-.08-.16-.14-.22c-.15-.15-1.1-.57-1.11-.29,0,.16.31.42.43.5.19.15.42.25.66.3Z"/>
        <path class="cls-2" d="M41.52,38.3c1.37,1.64,4.6.3,5.88,2.01.09.12.29.37.29.53,0,.19-.23.33-.36.45-.32.28-.68.52-.92.87-.07.09-.13.22-.07.32.97.02,1.95-.26,2.77-.79.26-.17.51-.37.8-.5.39-.18.96-.16,1.16.26.35.75.81,1.46,1.37,2.07.3.33.66.65,1.1.66.08,0,.14-.08.15-.16s-.02-.16-.06-.23c-.32-.76-.61-1.53-.87-2.31-.02-.06-.04-.13,0-.18.03-.05.08-.06.14-.08.37-.09.72-.03,1.09-.07.23-.02.44-.11.68-.09.84.05,1.46.62,2.25.77s1.76.23,2.58.16c.07,0,.15-.03.16-.09,0-.04-.01-.08-.04-.11-.52-.79-1.45-1.04-2.27-1.37-.93-.37-1.93-.66-2.94-.65,1.64-.78,3.68-1.61,5.51-1.71s2.16-.45.79-.83c-.45-.13-1.17-.22-1.63-.2-.92.04-1.71.11-2.61.38-1.26.38-2.51.8-3.75,1.23,1.04-3.02,1.31-6.31.78-9.46-.55.19-1.14.26-1.72.18.65,2.87.48,5.92-.48,8.7-2.11-1.79-4.88-2.13-7.5-2.16,1.72.9,3.79,1.66,5.29,2.89-.96.06-2.78-.21-3.66-.37-.51-.09-3.74.07-3.91-.13Z"/>
      </g>
    </g>
  </g>
</svg>